<?xml version="1.0" standalone="no"?>
<!DOCTYPE svg PUBLIC "-//W3C//DTD SVG 20010904//EN"
 "http://www.w3.org/TR/2001/REC-SVG-20010904/DTD/svg10.dtd">
<svg version="1.0" xmlns="http://www.w3.org/2000/svg"
 width="512.000000pt" height="512.000000pt" viewBox="0 0 512.000000 512.000000"
 preserveAspectRatio="xMidYMid meet">
<metadata>
Created by potrace 1.11, written by Peter Selinger 2001-2013
</metadata>
<g transform="translate(0.000000,512.000000) scale(0.100000,-0.100000)"
fill="#000000" stroke="none">
<path d="M1655 5104 c-620 -93 -1130 -509 -1334 -1088 -32 -92 -47 -145 -71
-266 -29 -150 -32 -384 -5 -545 57 -338 206 -639 435 -879 243 -255 562 -429
903 -492 131 -24 233 -27 969 -28 727 -1 737 -1 764 -22 104 -77 91 -217 -26
-265 -16 -7 -514 -10 -1470 -10 l-1445 0 0 -752 0 -752 1500 0 c825 0 1531 3
1568 8 205 23 449 107 649 224 146 86 353 270 448 398 25 33 47 62 51 65 17
15 105 169 148 260 52 109 116 304 127 387 3 26 8 50 9 53 2 3 7 44 11 90 11
116 8 279 -6 375 -6 44 -13 89 -14 100 -2 11 -6 29 -9 40 -3 11 -8 31 -11 45
-24 118 -107 322 -182 447 -31 53 -62 103 -70 112 -7 9 -39 50 -72 91 -180
226 -444 414 -722 514 -86 31 -244 72 -310 80 -25 3 -70 9 -100 12 -30 4 -390
8 -800 9 -518 1 -753 5 -771 12 -36 16 -77 67 -85 108 -10 55 16 115 65 150
l41 29 1444 1 c795 0 1448 4 1453 8 4 5 8 344 8 753 l0 744 -1500 -1 c-1205
-1 -1518 -4 -1590 -15z"/>
</g>
</svg>
